<svg id="1d69c2a7-1e44-4726-aee4-c3a97875665f" data-name="Calque 1" xmlns="http://www.w3.org/2000/svg" viewBox="0 0 173 40.28"><defs><style>.b53b1ea9-68fe-4d71-a2fb-e8463c346a3e{fill:#63074c;}.f388e4ba-991e-46db-a247-8007f2ee82d8{fill:#6b7a32;}.cd6d3f52-185a-449d-9da0-4c6f37fcb6f1{fill:#5b3685;}.\35 4f35d6d-582d-4169-82b3-8402d673d2e9{fill:#ea2861;}.\32 f7c1831-f259-46b7-9b61-62a021664a27{fill:#c3c1c0;}.\34 ce8419e-926a-4116-959b-7bef391889d7{fill:#007467;}.\30 50d8975-8a93-48f0-9842-21b5b8b8f781{fill:#a9217e;}.\33 ae06910-72c9-4eaa-9e17-6ecf79c3b05d{fill:#bf1c36;}.\38 a08a04f-e205-4137-acb0-cf33b80da27a{fill:#ee6134;}.a5c98590-fc60-4dab-9ea9-d8632c991c8e{fill:#074471;}.\32 033ca74-8af9-4e2c-ab15-1e4067842ad6{fill:#fff;}.\31 12e470f-3394-4da8-97a0-9c42b579df6c{fill:#231f20;}</style></defs><title>logo-labeyrie</title><rect class="b53b1ea9-68fe-4d71-a2fb-e8463c346a3e" x="0.15" y="22.94" width="17.34" height="17.34"/><rect class="f388e4ba-991e-46db-a247-8007f2ee82d8" x="17.42" y="22.94" width="17.34" height="17.34"/><rect class="cd6d3f52-185a-449d-9da0-4c6f37fcb6f1" x="34.67" y="22.94" width="17.34" height="17.34"/><rect class="54f35d6d-582d-4169-82b3-8402d673d2e9" x="51.97" y="22.94" width="17.34" height="17.34"/><rect class="2f7c1831-f259-46b7-9b61-62a021664a27" x="69.18" y="22.94" width="17.34" height="17.34"/><rect class="4ce8419e-926a-4116-959b-7bef391889d7" x="86.45" y="22.94" width="17.34" height="17.34"/><rect class="050d8975-8a93-48f0-9842-21b5b8b8f781" x="103.77" y="22.94" width="17.35" height="17.34"/><rect class="3ae06910-72c9-4eaa-9e17-6ecf79c3b05d" x="121.1" y="22.94" width="17.34" height="17.34"/><rect class="8a08a04f-e205-4137-acb0-cf33b80da27a" x="138.42" y="22.94" width="17.34" height="17.34"/><rect class="a5c98590-fc60-4dab-9ea9-d8632c991c8e" x="155.66" y="22.94" width="17.34" height="17.34"/><polyline class="2033ca74-8af9-4e2c-ab15-1e4067842ad6" points="5.58 38.49 5.58 24.67 12.06 24.67 12.06 26.05 7.11 26.05 7.11 30.58 11.71 30.58 11.71 31.97 7.11 31.97 7.11 38.49 5.58 38.49"/><rect class="2033ca74-8af9-4e2c-ab15-1e4067842ad6" x="25.33" y="24.67" width="1.53" height="13.82"/><path class="2033ca74-8af9-4e2c-ab15-1e4067842ad6" d="M45.87,24.86H47.4V38.68H44.9L41,27.63a11.27,11.27,0,0,1-.52-2.08h0c0,.7,0,1.41,0,2.12v11H39V24.86h2.48L45.4,36.17c.16.43.29.87.47,1.52h0c0-.5,0-1,0-1.55V24.86" transform="translate(0.15 -0.19)"/><polyline class="2033ca74-8af9-4e2c-ab15-1e4067842ad6" points="57.17 38.49 57.17 24.67 64.08 24.67 64.08 26.05 58.7 26.05 58.7 30.62 63.75 30.62 63.75 32 58.7 32 58.7 37.11 64.12 37.11 64.12 38.49 57.17 38.49"/><polyline class="2033ca74-8af9-4e2c-ab15-1e4067842ad6" points="91.88 38.49 91.88 24.67 98.36 24.67 98.36 26.05 93.41 26.05 93.41 30.58 98.01 30.58 98.01 31.97 93.41 31.97 93.41 38.49 91.88 38.49"/><path class="2033ca74-8af9-4e2c-ab15-1e4067842ad6" d="M115.26,31.38c0-3-.61-5.41-3-5.41s-2.93,2.39-2.93,5.41v.13c0,4,.42,6.12,3,6.12s2.95-2.12,3-6.12v-.13m-2.93-6.79c4,0,4.51,3.59,4.51,6.72v.17c0,3.83-.51,7.53-4.55,7.53s-4.51-3.7-4.55-7.53c0-3.17.48-6.89,4.59-6.89" transform="translate(0.15 -0.19)"/><path class="2033ca74-8af9-4e2c-ab15-1e4067842ad6" d="M132.59,31.38c0-3-.61-5.41-3-5.41s-2.93,2.39-2.93,5.41v.13c0,4,.42,6.12,3,6.12s2.95-2.12,3-6.12v-.13m-2.93-6.79c4,0,4.51,3.59,4.51,6.72v.17c0,3.83-.51,7.53-4.55,7.53s-4.51-3.7-4.55-7.53c0-3.17.48-6.89,4.59-6.89" transform="translate(0.15 -0.19)"/><path class="2033ca74-8af9-4e2c-ab15-1e4067842ad6" d="M144.17,37.3h2.44c2.11,0,3-1.46,3-5,0-.25,0-.53,0-.81-.11-3.15-.55-5.24-3-5.24h-2.44v11m-1.53,1.38V24.86h3.79c4,0,4.81,3,4.81,6.21,0,.24,0,.46,0,.7-.11,3.37-.77,6.91-4.51,6.91Z" transform="translate(0.15 -0.19)"/><path class="2033ca74-8af9-4e2c-ab15-1e4067842ad6" d="M166.43,28.49c0-.09,0-.18,0-.26A2.08,2.08,0,0,0,164.24,26c-2.23,0-2.47,1.4-2.47,2.47a1.8,1.8,0,0,0,1.31,1.87l2.19.84c2.61,1,3.09,1.89,3.09,3.72,0,2.61-1.63,4.14-4.29,4.14a3.76,3.76,0,0,1-3.77-2.19,7.61,7.61,0,0,1-.3-2.52h1.53v.42c0,1.8.48,2.91,2.62,2.91a2.32,2.32,0,0,0,2.63-2.41c0-2.1-.84-2.12-2.24-2.66a28.39,28.39,0,0,1-2.72-1.07,3.08,3.08,0,0,1-1.63-3.13A3.62,3.62,0,0,1,164,24.59c2.41,0,3.93,1.2,3.93,3.57,0,.11,0,.22,0,.33h-1.53" transform="translate(0.15 -0.19)"/><polyline class="112e470f-3394-4da8-97a0-9c42b579df6c" points="104.79 11.41 94.08 0.04 97.37 0.04 106.05 9.37 114.73 0.04 118.02 0.04 107.31 11.41 107.31 19.14 104.79 19.14 104.79 11.41"/><polyline class="112e470f-3394-4da8-97a0-9c42b579df6c" points="0 0.04 2.51 0.04 2.51 17.09 18.91 17.09 18.91 19.13 0 19.13 0 0.04"/><path class="112e470f-3394-4da8-97a0-9c42b579df6c" d="M38.89,12.28,33.32,2,27.75,12.28H38.89M31.78.19h3.08l10.66,19.1H42.69l-2.68-5H26.61l-2.71,5H21.1Z" transform="translate(0.15 -0.19)"/><path class="112e470f-3394-4da8-97a0-9c42b579df6c" d="M50,17.28h9.74c3,0,6-.47,6-3.39,0-2.66-2.28-3.57-5.68-3.57H50v7m0-8.91H58.8c2.91,0,6.22-.45,6.22-3.12,0-3-3.36-3.08-7.08-3.08H50ZM47.46.23h12c2.37,0,8.05,0,8.05,5,0,2.63-1.86,3.44-3.17,4,1.26.5,3.88,1.55,3.88,4.73,0,5.15-5.85,5.36-10.17,5.36H47.46Z" transform="translate(0.15 -0.19)"/><polyline class="112e470f-3394-4da8-97a0-9c42b579df6c" points="73 0.04 91.5 0.04 91.5 2.08 75.51 2.08 75.51 8.18 88.87 8.18 88.87 10.23 75.51 10.23 75.51 17.09 91.85 17.09 91.85 19.13 73 19.13 73 0.04"/><path class="112e470f-3394-4da8-97a0-9c42b579df6c" d="M123,8.82h8.9c3.63,0,6.34-.47,6.34-3.28s-2.71-3.26-6.34-3.26H123V8.82M120.43.23h12c3.31,0,8.16.65,8.16,5.33,0,4-4,5.15-6.53,5.26l6.85,8.51H137.8l-6.69-8.46H123v8.46h-2.52Z" transform="translate(0.15 -0.19)"/><rect class="112e470f-3394-4da8-97a0-9c42b579df6c" x="145.97" y="0.04" width="2.51" height="19.1"/><polyline class="112e470f-3394-4da8-97a0-9c42b579df6c" points="153.91 0.04 172.41 0.04 172.41 2.08 156.42 2.08 156.42 8.18 169.79 8.18 169.79 10.23 156.42 10.23 156.42 17.09 172.76 17.09 172.76 19.13 153.91 19.13 153.91 0.04"/></svg>